<?xml version="1.0" encoding="UTF-8"?>
<svg version="1.1" xmlns="http://www.w3.org/2000/svg" width="474" height="202">
<path d="M0 0 C156.42 0 312.84 0 474 0 C474 66.66 474 133.32 474 202 C317.58 202 161.16 202 0 202 C0 135.34 0 68.68 0 0 Z " fill="#FEFEFE" transform="translate(0,0)"/>
<path d="M0 0 C2.55541479 1.62480114 3.22976367 3.14861428 4.484375 5.88671875 C4.8659375 6.70398438 5.2475 7.52125 5.640625 8.36328125 C6.37790271 9.95357212 7.11039997 11.5462319 7.8203125 13.14892578 C10.17484769 18.2167709 13.00293297 21.98372878 16.984375 25.88671875 C17.5518042 26.44866943 18.1192334 27.01062012 18.70385742 27.58959961 C23.87754076 32.51367227 29.39454548 35.53554106 35.984375 38.26171875 C43.68445151 41.81183352 43.68445151 41.81183352 45.984375 45.26171875 C46.32350683 51.1965258 44.82773724 55.71036873 40.984375 60.26171875 C37.7075336 63.72557591 34.98845879 65.92702415 30.421875 67.44921875 C26.89185021 67.25667194 25.02857973 66.7418511 22.4375 64.30078125 C20.12685978 61.05843127 18.8856082 57.39727683 17.44067383 53.70654297 C13.25198446 43.4841622 4.07217686 35.32025332 -5.015625 29.26171875 C-0.75026359 36.56367852 3.91315387 42.61755534 9.9453125 48.55859375 C12.44694712 51.87493697 12.85070856 54.14192822 12.984375 58.26171875 C10.14946704 63.82249976 6.64744422 67.3398871 0.734375 69.38671875 C-4.80343047 69.20212523 -7.72596049 66.57615999 -12.015625 63.26171875 C-13.60228739 62.06233635 -15.18901938 60.86303981 -16.77856445 59.66748047 C-18.33132543 58.49403245 -19.87294164 57.3058815 -21.4140625 56.1171875 C-23.93947297 54.12409906 -23.93947297 54.12409906 -27.015625 53.26171875 C-23.69031692 61.61505291 -13.12031939 70.59023125 -5.015625 74.26171875 C-2.17136547 75.30278059 0.67009562 76.28541603 3.56640625 77.171875 C6.42187904 78.45891362 7.46396382 79.54176238 8.984375 82.26171875 C9.90295487 86.81324061 9.42828355 90.40678377 7.296875 94.51171875 C-0.64473684 103.9557977 -0.64473684 103.9557977 -6.890625 104.76171875 C-10.31950391 104.63634841 -10.91646986 104.34473235 -13.703125 102.01171875 C-15.79592026 99.08866702 -16.90192532 95.9957549 -18.140625 92.63671875 C-21.9811217 82.89615299 -30.73519717 73.20237817 -40.015625 68.26171875 C-42.06432877 67.5537897 -44.12836943 66.8892058 -46.203125 66.26171875 C-51.70276698 64.55828982 -54.29169666 63.41772597 -57.015625 58.26171875 C-57.93036744 53.58730096 -57.52214586 50.27476046 -55.390625 46.01171875 C-51.33238923 41.31270891 -47.60632706 37.47407138 -41.203125 36.94921875 C-28.81313305 37.1662409 -17.70058195 43.6106247 -7.015625 49.26171875 C-7.37914062 48.69066406 -7.74265625 48.11960938 -8.1171875 47.53125 C-12.35600251 40.69480221 -15.80780714 33.63390256 -19.015625 26.26171875 C-19.39332031 25.39804688 -19.77101562 24.534375 -20.16015625 23.64453125 C-21.79543571 19.08964325 -21.9252752 14.62680926 -20.17578125 10.078125 C-16.04496447 2.72054225 -8.70372206 -3.18799122 0 0 Z " fill="#020202" transform="translate(74.015625,68.73828125)"/>
<path d="M0 0 C7.7631935 5.40460494 13.12854526 11.92754378 16 21 C17.51093345 30.13177297 15.66545727 38.06872264 11 46 C2.4028571 57.55547534 -9.65545822 66.27948346 -24 69 C-34.6191833 69.90941622 -42.93788859 68.57780818 -51.3125 61.75 C-58.44317754 55.00826851 -61.98348801 47.48165091 -62.3125 37.625 C-62.04284538 27.20781637 -57.9128132 19.72543053 -51 12 C-38.19729649 0.33491331 -16.83539149 -9.53292585 0 0 Z " fill="#020202" transform="translate(441,106)"/>
<path d="M0 0 C4.58423913 2.61956522 4.58423913 2.61956522 6.0625 5.75 C6.91535976 10.76055109 5.72392646 13.53087294 3.5625 18.0625 C-1.3631854 29.94536816 -0.1130224 45.27942336 2.0625 57.75 C2.22381325 60.10094224 2.32629122 62.45653335 2.375 64.8125 C2.43107422 66.59333984 2.43107422 66.59333984 2.48828125 68.41015625 C1.98373264 72.36785408 0.83649745 73.94512318 -1.9375 76.75 C-4.35260615 77.95755308 -6.05488049 77.98572748 -8.75 78.0625 C-9.60207031 78.09988281 -10.45414063 78.13726562 -11.33203125 78.17578125 C-14.83733563 77.6029504 -16.33177264 76.13590315 -18.9375 73.75 C-20.46386719 71.28662109 -20.46386719 71.28662109 -21.734375 68.5234375 C-22.21422852 67.49919678 -22.69408203 66.47495605 -23.18847656 65.41967773 C-23.6831543 64.33243408 -24.17783203 63.24519043 -24.6875 62.125 C-25.73832695 59.87311121 -26.79042156 57.62181355 -27.84375 55.37109375 C-28.36195313 54.25589355 -28.88015625 53.14069336 -29.4140625 51.99169922 C-31.5949062 47.35111546 -33.87837236 42.76529379 -36.1875 38.1875 C-36.5700293 37.42679199 -36.95255859 36.66608398 -37.34667969 35.88232422 C-38.20838937 34.17059314 -39.07260881 32.46012576 -39.9375 30.75 C-40.71195759 46.72816824 -40.71195759 46.72816824 -35.25 61.4375 C-33.37856228 64.73479502 -33.47153472 67.02227776 -33.9375 70.75 C-36.08823683 74.53529682 -38.63935385 76.69199009 -42.7421875 78.24609375 C-48.34176237 79.53140542 -54.53345972 79.97565537 -59.71875 77.33203125 C-62.25552339 75.52324036 -63.12526695 74.75526228 -63.9375 71.75 C-63.77254555 66.96632095 -62.92727819 63.57444533 -60.9140625 59.2578125 C-58.45914541 53.23412204 -58.34384772 47.68859425 -58.4375 41.25 C-58.41429687 39.65478516 -58.41429687 39.65478516 -58.390625 38.02734375 C-58.42633329 30.75177955 -59.85623271 25.29554925 -62.9375 18.75 C-64.61022614 14.80947171 -65.55507498 12.07302485 -64.9375 7.75 C-62.06449069 3.48152902 -59.81491297 1.27331809 -54.9375 -0.25 C-51.81640625 -0.5859375 -51.81640625 -0.5859375 -48.5 -0.625 C-47.40816406 -0.65335938 -46.31632812 -0.68171875 -45.19140625 -0.7109375 C-41.00477497 -0.11787329 -39.10929397 0.93834133 -35.9375 3.75 C-34.17806567 6.57389396 -32.94053906 9.54873708 -31.6875 12.625 C-30.92420398 14.40929381 -30.1598385 16.19313041 -29.39453125 17.9765625 C-28.80212646 19.37890137 -28.80212646 19.37890137 -28.19775391 20.80957031 C-26.01069473 25.91242594 -23.68609493 30.9524299 -21.375 36 C-20.51911274 37.88001786 -19.66360645 39.76020924 -18.80859375 41.640625 C-18.18495184 43.01044217 -17.56127711 44.3802444 -16.9375 45.75 C-16.45418155 34.17720824 -16.91292229 25.82770563 -22.75 15.5625 C-24.34638632 11.78158504 -24.07759771 9.66908586 -22.9375 5.75 C-16.88798278 -1.60752094 -8.95240031 -3.48572182 0 0 Z " fill="#020202" transform="translate(259.9375,10.25)"/>
<path d="M0 0 C3.43281494 1.99103266 5.73650644 3.62784192 8.125 6.8125 C8.91749588 11.30330999 8.00021431 14.36247273 6.25 18.4375 C1.91644488 28.79500407 1.9389178 39.23950242 1.875 50.3125 C1.8656543 51.45912109 1.85630859 52.60574219 1.84667969 53.78710938 C1.85086914 54.87830078 1.85505859 55.96949219 1.859375 57.09375 C1.86163086 58.07408203 1.86388672 59.05441406 1.86621094 60.06445312 C2.14183807 62.99130128 2.96902974 65.12686706 4.125 67.8125 C4.60657148 72.43558625 4.06416807 75.16387757 1.125 78.8125 C-2.91420247 81.23602148 -7.28261391 81.46972878 -11.875 80.8125 C-18.09113247 78.98605707 -22.51501318 76.41247803 -25.875 70.8125 C-26.18590054 67.23714384 -25.48043839 65.53902606 -23.1953125 62.796875 C-21.92054356 61.41459542 -20.61360082 60.06116247 -19.2734375 58.7421875 C-17.63460559 56.91541305 -17.63460559 56.91541305 -18.02734375 54.64453125 C-18.75351854 52.59651884 -18.75351854 52.59651884 -21.0625 51.625 C-23.9898728 50.77931452 -26.85876679 50.23336975 -29.875 49.8125 C-29.90078125 50.62074219 -29.9265625 51.42898437 -29.953125 52.26171875 C-30.41732234 61.00761859 -30.41732234 61.00761859 -32.6875 65 C-36.77580643 68.3874539 -40.66051642 68.15443335 -45.875 67.8125 C-51.67225606 66.5496329 -56.39351058 64.86627497 -59.875 59.8125 C-60.62942814 56.95147637 -60.67326819 54.66761981 -59.875 51.8125 C-57.31482703 48.98283514 -55.03142538 47.41326709 -51.671875 45.66796875 C-37.82570075 38.2758983 -26.60759339 22.41304512 -21.6875 7.75 C-20.62511434 4.63548477 -19.84094918 2.76813076 -17.8125 0.125 C-12.23204638 -2.36839417 -5.70972654 -2.17871144 0 0 Z " fill="#020202" transform="translate(333.875,27.1875)"/>
<path d="M0 0 C4.15804272 3.25412039 5.3156887 6.70608237 7.1875 11.5625 C10.1755298 19.09307979 14.82216809 24.89558938 20 31 C20.45213867 31.54253418 20.90427734 32.08506836 21.37011719 32.64404297 C26.59784569 38.86708632 31.66360229 44.04642613 39.00390625 47.81640625 C41 49 41 49 43 52 C43.520543 55.38352947 43.66489924 57.82909287 41.9375 60.87109375 C37.92006592 65.94747106 33.11612289 69.4032639 26.62890625 70.34375 C23.06803357 70.48407996 20.68292634 70.35853633 17.5 68.6875 C14.6638665 65.49684981 14.74532124 61.90212499 14.4375 57.8125 C14.35371094 56.72582031 14.26992187 55.63914063 14.18359375 54.51953125 C14.12300781 53.68808594 14.06242187 52.85664062 14 52 C9.6109185 52.51035831 6.66291938 53.52214277 3 56 C3.32931712 59.73226064 4.03604088 61.04131516 6.5625 63.9375 C9 67 9 67 9.5625 70 C8.54614049 75.42058403 5.79582876 78.69823197 1.375 81.8125 C-3.17837409 84.43388172 -7.75098456 85.48702205 -13 85 C-15.98653297 83.23246008 -17.45952276 82.08095449 -19 79 C-18.94921875 77.046875 -18.94921875 77.046875 -18.6875 74.75 C-18.60886719 74.00234375 -18.53023438 73.2546875 -18.44921875 72.484375 C-18 70 -18 70 -16.97265625 67.2265625 C-15.79389954 63.31630931 -15.69890534 59.66802886 -15.75 55.625 C-15.76123901 54.44623291 -15.76123901 54.44623291 -15.77270508 53.24365234 C-15.9813924 41.63410844 -17.06222446 31.25023331 -21.94140625 20.55078125 C-23.36068142 17.13090419 -23.65605344 14.64474133 -23 11 C-18.57630885 1.78397677 -9.91005281 -2.10686162 0 0 Z " fill="#020202" transform="translate(144,29)"/>
<path d="M0 0 C2.66842294 2.03109871 2.95959027 2.77101154 3.5625 6.1875 C2.78788007 11.43770173 0.46620195 14.10799307 -3 18 C-3.556875 18.66128906 -4.11375 19.32257813 -4.6875 20.00390625 C-11.93285388 27.98316451 -22.09211445 34.56632088 -33.01171875 35.35546875 C-35.59213097 34.89413768 -36.44519887 34.08419661 -38 32 C-38.87282304 27.55653723 -38.70605707 25.31644245 -36.55859375 21.3125 C-28.87430548 10.13535342 -14.86222985 -3.27241758 0 0 Z " fill="#FCFCFC" transform="translate(436,122)"/>
<path d="M0 0 C4.35625788 0.07026222 7.53485618 1.10838133 11.375 3.25 C14.20522558 6.30366444 16.16279944 8.70693286 16.734375 12.86328125 C16.23685152 17.55189926 14.17589463 20.55025187 11.625 24.4375 C11.1815625 25.14841797 10.738125 25.85933594 10.28125 26.59179688 C6.05986914 33.19080842 6.05986914 33.19080842 2.375 35.25 C-0.625 35.6875 -0.625 35.6875 -3.625 35.25 C-6.57776388 32.85586712 -8.38769773 30.88474897 -8.94140625 27.0703125 C-9.2097171 24.13166981 -9.43185327 21.19457661 -9.625 18.25 C-9.70363281 17.1878125 -9.78226562 16.125625 -9.86328125 15.03125 C-10.20138429 7.22589976 -10.20138429 7.22589976 -8.54296875 4.41796875 C-7.1875 3.0625 -7.1875 3.0625 -4.625 1.25 C-3.625 0.25 -3.625 0.25 0 0 Z " fill="#020202" transform="translate(387.625,38.75)"/>
<path d="M0 0 C2.80942145 3.42612372 5.38659494 6.91719564 7.8125 10.625 C8.43769531 11.56601563 9.06289062 12.50703125 9.70703125 13.4765625 C10.13371094 14.30929688 10.56039062 15.14203125 11 16 C10.67 16.99 10.34 17.98 10 19 C8.35 19.33 6.7 19.66 5 20 C1.72123824 13.59151111 0.9066512 7.09321236 0 0 Z " fill="#F2F2F2" transform="translate(140,53)"/>
<path d="M0 0 C1.6346394 3.2692788 0.30977489 6.60558816 -0.375 10.0625 C-0.51421875 10.80822266 -0.6534375 11.55394531 -0.796875 12.32226562 C-1.86393595 17.86393595 -1.86393595 17.86393595 -3 19 C-4.66617115 19.04063832 -6.33388095 19.042721 -8 19 C-8.94928024 16.50515795 -9.33956324 14.76951694 -8.23876953 12.27490234 C-7.07575271 10.36178316 -5.84551117 8.52226266 -4.5625 6.6875 C-3.9118457 5.71973633 -3.9118457 5.71973633 -3.24804688 4.73242188 C-2.17863028 3.14592473 -1.0910456 1.57170116 0 0 Z " fill="#F2F2F2" transform="translate(322,50)"/>
</svg>
